<svg xmlns="http://www.w3.org/2000/svg" xmlns:xlink="http://www.w3.org/1999/xlink" width="24" height="24" viewBox="0 0 24 24">
    <defs>
        <path id="a" d="M3.208 12.7A.76.76 0 0 1 3 12.21c0-.14.07-.35.208-.49l.969-.98a.664.664 0 0 1 .97 0l.068.07 3.808 4.13c.139.14.346.14.485 0l9.277-9.73h.069a.664.664 0 0 1 .97 0l.968.98c.277.28.277.7 0 .98L9.715 18.79a.625.625 0 0 1-.484.21.625.625 0 0 1-.485-.21l-5.4-5.88-.138-.21z"/>
    </defs>
    <use fill="#21B362" fill-rule="nonzero" xlink:href="#a"/>
</svg>
